# xmcd CD database file
#
# Track frame offsets:
#	150
#	22875
#	46615
#	64787
#	78281
#	90732
#	108482
#	124897
#	134626
#	152632
#	165739
#	185871
#	205886
#	225064
#	243550
#	269165
#
# Disc length: 3813 seconds
#
# Revision: 0
# Processed by: cddbd v1.4PL0 Copyright (c) Steve Scherf et al.
# Submitted via: CDex 1.50
#
DISCID=d80ee310
DTITLE=Various Artist - Relax with a Coffee Break
DYEAR=2001
DGENRE=Jazz
TTITLE0=EL Condor Pasa
TTITLE1=Jesu Joy Of Man's Desire
TTITLE2=Air
TTITLE3=Scarborough Fair
TTITLE4=Time In a Bottle
TTITLE5=Malaguena
TTITLE6=Viva Jujullo
TTITLE7=Romeo and Juliet
TTITLE8=Erev Shel Shoshanim
TTITLE9=Greensleeves
TTITLE10=Bridge Over Troubled Water
TTITLE11=Theme From 'The Rose'
TTITLE12=Asi ES
TTITLE13=Mizerlu
TTITLE14=Adagio In A-Minor
TTITLE15=Sukiyaki
EXTD=YEAR: 2001
EXTT0=
EXTT1=
EXTT2=
EXTT3=
EXTT4=
EXTT5=
EXTT6=
EXTT7=
EXTT8=
EXTT9=
EXTT10=
EXTT11=
EXTT12=
EXTT13=
EXTT14=
EXTT15=
PLAYORDER=
